<svg version="1.1" xmlns="http://www.w3.org/2000/svg" xmlns:xlink="http://www.w3.org/1999/xlink" width="121.65359" height="69.63673" viewBox="0,0,121.65359,69.63673"><g transform="translate(-179.74577,-150.787)"><g data-paper-data="{&quot;isPaintingLayer&quot;:true}" fill-rule="nonzero" stroke="none" stroke-linejoin="miter" stroke-miterlimit="10" stroke-dasharray="" stroke-dashoffset="0" style="mix-blend-mode: normal"><path d="M301.39937,176.93001c0,14.416 -11.729,26.144 -26.144,26.144h-67.713c-14.415,0 -26.143,-11.727 -26.143,-26.144c0,-14.415 11.727,-26.143 26.143,-26.143h67.713c14.415,0 26.144,11.728 26.144,26.143z" fill="#ffffff" stroke-width="1" stroke-linecap="butt"/><path d="M296.51401,176.93001c0,11.952 -9.688,21.641 -21.64,21.641h-67.713c-11.952,0 -21.641,-9.689 -21.641,-21.641v0c0,-11.951 9.689,-21.64 21.641,-21.64h67.713c11.952,0 21.64,9.689 21.64,21.64z" fill="#202020" stroke-width="1" stroke-linecap="butt"/><path d="M262.13804,176.76011c0,11.90076 -9.56572,21.54824 -21.36563,21.54824c-11.79991,0 -21.36563,-9.64748 -21.36563,-21.54824c0,-11.90076 9.56572,-21.54824 21.36563,-21.54824c11.79991,0 21.36563,9.64748 21.36563,21.54824z" fill="#4e4e4e" stroke-width="0" stroke-linecap="butt"/><path d="M196.90679,211.2712l23.64407,-1.90678" fill="none" stroke-width="0" stroke-linecap="round"/><path d="M181.65255,220.42374l-1.90677,-6.1017" fill="none" stroke-width="0" stroke-linecap="round"/></g></g></svg>