<svg version="1.1" xmlns="http://www.w3.org/2000/svg" xmlns:xlink="http://www.w3.org/1999/xlink" width="107.5" height="243.76501" viewBox="0,0,107.5,243.76501"><g transform="translate(-100,-58.66667)"><g data-paper-data="{&quot;isPaintingLayer&quot;:true}" fill-rule="nonzero" stroke-linejoin="miter" stroke-miterlimit="10" stroke-dasharray="" stroke-dashoffset="0" style="mix-blend-mode: normal"><path d="M166,249.43168c0,16.84468 -6.04415,30.5 -13.5,30.5c-7.45585,0 -13.5,-13.65531 -13.5,-30.5c0,-16.84468 6.04415,-30.5 13.5,-30.5c7.45585,0 13.5,13.65532 13.5,30.5z" fill="#a38e90" stroke="#a38e90" stroke-width="5" stroke-linecap="butt"/><path d="M140,100.93168l9,23l-2,146l-6,15v15h21v-14l-5,-16l2,-146l10,-23z" fill="#ac4340" stroke="#ac4340" stroke-width="5" stroke-linecap="round"/><path d="M158,217.93168l18,-16l2,-58l-19,-25z" fill="#a38e90" stroke="#ac4340" stroke-width="5" stroke-linecap="round"/><path d="M146,217.93168l-16,-17l-1,-57l19,-23z" fill="#a38e90" stroke="#ac4340" stroke-width="5" stroke-linecap="round"/><path d="M171,106.93168l4,25l-10,-13z" fill="none" stroke="#a38e90" stroke-width="5" stroke-linecap="round"/><path d="M169.5,114l0.5,5" fill="none" stroke="#a38e90" stroke-width="5" stroke-linecap="round"/><path d="M167.5,122l4,2" fill="none" stroke="#a38e90" stroke-width="5" stroke-linecap="round"/><path d="M143,118.93168l-10.5,13.5l5,-26z" data-paper-data="{&quot;index&quot;:null}" fill="none" stroke="#a38e90" stroke-width="5" stroke-linecap="round"/><path d="M140,115l-2.5,7.5" fill="none" stroke="#a38e90" stroke-width="5" stroke-linecap="round"/><path d="M104,95v-33h21v33z" fill="#998587" stroke="none" stroke-width="0" stroke-linecap="butt"/><path d="M102,92h24.5" fill="none" stroke="#ac4340" stroke-width="4" stroke-linecap="round"/><path d="M103,61h23" fill="none" stroke="#ac4340" stroke-width="4" stroke-linecap="round"/><path d="M114,61.5v28.5" fill="none" stroke="#ac4340" stroke-width="5" stroke-linecap="round"/><path d="M120.66667,68.16666l0.33334,15.66667" fill="none" stroke="#4d4344" stroke-width="2.5" stroke-linecap="round"/><path d="M107.33333,68.5l0.33334,15.66667" fill="none" stroke="#4d4344" stroke-width="2.5" stroke-linecap="round"/><path d="M143.66667,94.66667v-33h21v33z" fill="#998587" stroke="none" stroke-width="0" stroke-linecap="butt"/><path d="M141.66667,91.66667h24.5" fill="none" stroke="#ac4340" stroke-width="4" stroke-linecap="round"/><path d="M142.66667,60.66667h23" fill="none" stroke="#ac4340" stroke-width="4" stroke-linecap="round"/><path d="M153.66667,61.16667v28.5" fill="none" stroke="#ac4340" stroke-width="5" stroke-linecap="round"/><path d="M160.33333,67.83333l0.33334,15.66667" fill="none" stroke="#4d4344" stroke-width="2.5" stroke-linecap="round"/><path d="M147,68.16667l0.33334,15.66667" fill="none" stroke="#4d4344" stroke-width="2.5" stroke-linecap="round"/><path d="M183,95.33333v-33h21v33z" fill="#998587" stroke="none" stroke-width="0" stroke-linecap="butt"/><path d="M181,92.33333h24.5" fill="none" stroke="#ac4340" stroke-width="4" stroke-linecap="round"/><path d="M182,61.33333h23" fill="none" stroke="#ac4340" stroke-width="4" stroke-linecap="round"/><path d="M193,61.83333v28.5" fill="none" stroke="#ac4340" stroke-width="5" stroke-linecap="round"/><path d="M199.66666,68.5l0.33334,15.66667" fill="none" stroke="#4d4344" stroke-width="2.5" stroke-linecap="round"/><path d="M186.33333,68.83333l0.33333,15.66667" fill="none" stroke="#4d4344" stroke-width="2.5" stroke-linecap="round"/></g></g></svg>